<?xml version="1.0" encoding="UTF-8" standalone="no" ?>
<!DOCTYPE svg PUBLIC "-//W3C//DTD SVG 1.1//EN" "http://www.w3.org/Graphics/SVG/1.1/DTD/svg11.dtd">
<svg xmlns="http://www.w3.org/2000/svg" xmlns:xlink="http://www.w3.org/1999/xlink" version="1.1" width="1280" height="1024" viewBox="0 0 1280 1024" xml:space="preserve">
<desc>Created with Fabric.js 5.3.0</desc>
<defs>
</defs>
<g transform="matrix(1 0 0 1 640 512)" id="background-logo"  >
<rect style="stroke: none; stroke-width: 0; stroke-dasharray: none; stroke-linecap: butt; stroke-dashoffset: 0; stroke-linejoin: miter; stroke-miterlimit: 4; fill: rgb(255,255,255); fill-opacity: 0; fill-rule: nonzero; opacity: 1;"  paint-order="stroke"  x="-640" y="-512" rx="0" ry="0" width="1280" height="1024" />
</g>
<g transform="matrix(2.622635358208375 0 0 2.622635358208375 281.93395420369114 429.9325176109093)" id="logo-logo"  >
<g style=""  paint-order="stroke"   >
		<g transform="matrix(0.4747364040304255 0 0 0.4747364040304255 -57.26365894200654 -22.9467763913959)"  >
<path style="stroke: none; stroke-width: 1; stroke-dasharray: none; stroke-linecap: butt; stroke-dashoffset: 0; stroke-linejoin: miter; stroke-miterlimit: 4; fill: rgb(110,159,216); fill-rule: nonzero; opacity: 1;"  paint-order="stroke"  transform=" translate(-229.3779754, -301.85639190000006)" d="M 292.6130981 362.0192261 L 281.8186645 321.1608582 C 281.8186645 321.1608582 268.3300476 317.7351075 264.0881347 295.34509280000003 C 260.0346374 273.95135500000004 261.5736389 267.77389530000005 267.6427612 263.00531010000003 C 267.6427612 263.00531010000003 259.7528991 240.20245370000004 259.2327575 217.92002870000005 C 258.8018188 199.46379090000005 270.0837707 181.79199220000004 276.4854125 174.48982240000004 C 211.5388793 204.23962400000005 166.1428527 272.1884461 166.1428527 351.26806640000007 C 166.1428527 379.0138550000001 171.74090569999998 405.38485720000006 181.8001861 429.22296140000003 C 193.07611079999998 422.6251831 224.15112299999998 405.13070680000004 258.10559079999996 392.0181274 C 258.1055908 392.0181274 278.3939209 372.4233398 292.6130981 362.0192261 z" stroke-linecap="round" />
</g>
		<g transform="matrix(0.4747364040304255 0 0 0.4747364040304255 56.785162957971636 -23.083794788590325)"  >
<path style="stroke: none; stroke-width: 1; stroke-dasharray: none; stroke-linecap: butt; stroke-dashoffset: 0; stroke-linejoin: miter; stroke-miterlimit: 4; fill: rgb(110,159,216); fill-rule: nonzero; opacity: 1;"  paint-order="stroke"  transform=" translate(-469.61407469999995, -301.56777195000006)" d="M 420.0845032 172.9609833 C 426.04870609999995 179.0085602 439.2164307 198.0084687 438.75137329999995 217.92002870000002 C 438.23123169999997 240.2024536 430.34136959999995 263.00531010000003 430.34136959999995 263.00531010000003 C 436.41049189999995 267.77389530000005 437.94949339999994 273.95135500000004 433.89620969999993 295.34509280000003 C 429.65408319999995 317.73510740000006 416.16546629999993 321.1608582 416.16546629999993 321.1608582 L 405.37103269999994 362.0192261 C 419.59020989999993 372.42333990000003 439.87853999999993 392.01812750000005 439.87853999999993 392.01812750000005 C 475.61694329999995 405.8196717000001 508.1760863999999 424.4812317 517.8029784999999 430.17456060000006 C 528.1159056999999 406.0885926000001 533.8571166999999 379.3821717000001 533.8571166999999 351.26806650000003 C 533.8571167 270.8032532 486.8578186 201.861496 420.0845032 172.9609833 z" stroke-linecap="round" />
</g>
		<g transform="matrix(0.4747364040304255 0 0 0.4747364040304255 -56.64939406699267 54.107909102263875)"  >
<path style="stroke: none; stroke-width: 1; stroke-dasharray: none; stroke-linecap: butt; stroke-dashoffset: 0; stroke-linejoin: miter; stroke-miterlimit: 4; fill: rgb(70,72,75); fill-rule: nonzero; opacity: 1;"  paint-order="stroke"  transform=" translate(-230.67188265, -464.1668548)" d="M 261.6069946 444.1477966 L 242.5326538 428.368103 L 258.1607361 400.97006220000003 C 232.72196960000002 413.2028808 198.80813600000002 432.1795349 186.3465424 439.2309875 C 205.4141236 478.17337030000004 236.74887090000001 509.4174194 274.9972229 527.3636474 L 245.6539154 457.6734313 L 261.6069946 444.1477966 z" stroke-linecap="round" />
</g>
		<g transform="matrix(0.4747364040304255 0 0 0.4747364040304255 0.00001087146370082337 51.7043749686585)"  >
<path style="stroke: none; stroke-width: 1; stroke-dasharray: none; stroke-linecap: butt; stroke-dashoffset: 0; stroke-linejoin: miter; stroke-miterlimit: 4; fill: rgb(70,72,75); fill-rule: nonzero; opacity: 1;"  paint-order="stroke"  transform=" translate(-350.00000760000006, -459.10397335000005)" d="M 425.3660278 442.6088257 L 445.0473632 425.96215820000003 L 409.58605950000003 374.11395260000006 C 409.58605950000003 374.11395260000006 408.23739620000003 392.94744870000005 404.88882440000003 419.08291620000006 L 385.8947448 442.6738586000001 L 358.3235778 412.11151120000005 L 350.00012200000003 412.11151120000005 L 341.67666620000006 412.11151120000005 L 314.1052551000001 442.6738586000001 L 295.11141970000006 419.0826721000001 C 291.7626038000001 392.9474487000001 290.4139405000001 374.11395260000006 290.4139405000001 374.11395260000006 L 254.95265200000009 425.9621582000001 L 274.6339722000001 442.60882570000007 L 258.05215460000005 458.34545900000006 L 277.91195680000004 528.7011719000001 C 292.28179930000005 535.1309204 307.59234620000007 539.6893311000001 323.56552130000006 542.1020508 C 309.43603520000005 510.07568360000005 300.73342900000006 461.2241821 295.81222540000005 424.4376831 L 313.97512820000003 450.86721800000004 L 330.492157 432.13964840000006 C 334.6537781 441.63354490000006 344.27777100000003 450.86721800000004 344.27777100000003 450.86721800000004 L 327.50076290000004 498.94363400000003 C 325.10498040000004 516.0739746 326.97091670000003 533.5718383000001 328.35369870000005 542.7571411 C 335.45471190000006 543.6306152 342.67517090000007 544.0939941 350.00012200000003 544.0939941 C 357.324829 544.0939941 364.5455322 543.6306152000001 371.6465453 542.7571411 C 373.02932730000003 533.5718384 374.8952636 516.0739746 372.499237 498.94363400000003 L 355.7224731 450.86721800000004 C 355.7224731 450.86721800000004 365.346466 441.63354490000006 369.5080566 432.13964840000006 L 386.02487179999997 450.86721800000004 L 404.18777459999995 424.43792720000005 C 399.2668151 461.22442620000004 390.5642088999999 510.07543940000005 376.4347228 542.1018066 C 392.4078978 539.689331 407.71844469999996 535.1309204 422.0880431 528.7011718 L 441.9478453 458.3454589 L 425.3660278 442.6088257 z" stroke-linecap="round" />
</g>
		<g transform="matrix(0.4747364040304255 0 0 0.4747364040304255 -5.99006663987592 -33.05205885060025)"  >
<path style="stroke: none; stroke-width: 1; stroke-dasharray: none; stroke-linecap: butt; stroke-dashoffset: 0; stroke-linejoin: miter; stroke-miterlimit: 4; fill: rgb(70,72,75); fill-rule: nonzero; opacity: 1;"  paint-order="stroke"  transform=" translate(-337.3823160547869, -280.57030055875816)" d="M 402.3464966 199.9943237 C 424.56204230000003 138.21459959999999 272.01287840000003 141.2516784 270.27722170000004 213.45495599999998 C 269.62695310000004 240.5059814 273.39849860000004 261.2493896 288.744812 318.21270749999996 C 304.09118650000005 375.1762695 350.0001221 389.005188 350.0001221 389.005188 L 350.0001221 404.85015869999995 C 370.591919 397.48052979999994 397.0359497 368.93377689999994 397.0359497 368.93377689999994 C 399.1168823 360.78375249999993 399.4636841 341.66583259999993 399.4636841 341.66583259999993 C 388.8859253 357.6192016999999 352.29455570000005 378.42767339999995 352.29455570000005 378.42767339999995 C 352.29455570000005 378.42767339999995 303.22424320000005 364.55523689999995 291.60589600000003 309.58605959999994 C 279.987793 254.61682129999994 290.305603 223.79400639999994 290.305603 223.79400639999994 C 344.8412476 239.7037964 394.7398071 221.1479492 402.3464966 199.9943237 z" stroke-linecap="round" />
</g>
		<g transform="matrix(0.4747364040304255 0 0 0.4747364040304255 24.7139435857394 -11.760216409539254)"  >
<path style="stroke: none; stroke-width: 1; stroke-dasharray: none; stroke-linecap: butt; stroke-dashoffset: 0; stroke-linejoin: miter; stroke-miterlimit: 4; fill: rgb(70,72,75); fill-rule: nonzero; opacity: 1;"  paint-order="stroke"  transform=" translate(-402.0582287611727, -325.42012092285313)" d="M 402.1152954 325.219635 C 401.8580017 326.1226501 402.116272 325.2179871 402.1152954 325.219635 L 402.1152954 325.219635 z" stroke-linecap="round" />
</g>
		<g transform="matrix(0.4747364040304255 0 0 0.4747364040304255 19.30346738475663 -32.33166886414742)"  >
<path style="stroke: none; stroke-width: 1; stroke-dasharray: none; stroke-linecap: butt; stroke-dashoffset: 0; stroke-linejoin: miter; stroke-miterlimit: 4; fill: rgb(70,72,75); fill-rule: nonzero; opacity: 1;"  paint-order="stroke"  transform=" translate(-390.6614280207011, -282.08775315)" d="M 414.5715942 308.9790344 C 422.5697631 303.5169067 426.1463928 288.8858642 425.3009643 277.9613342 C 424.45577999999995 267.0368042 418.62484739999996 269.6596679 415.17855829999996 276.8774719 C 413.64538569999996 280.0881958 411.8232116 281.1672363 410.4614868 281.4857177 C 412.6703491 253.9109039 406.6599731 241.7847289 406.6599731 241.7847289 C 417.1509094 254.3565978 413.8562622 273.86453240000003 413.8562622 273.86453240000003 C 443.7731628 211.26615900000002 422.2706299 196.39547720000002 410.1788025 192.86166370000004 C 409.8958435 195.93310540000004 409.2250366 199.02413930000003 408.1283264 202.07403550000004 C 403.5287781 214.86695850000004 387.5848999 225.95594770000002 365.4797058 231.73777760000004 C 361.19140619999996 232.85961900000004 356.78433229999996 233.74736010000004 352.29458619999997 234.41770920000005 L 352.29458619999997 371.31384260000004 C 391.40695189999997 348.04403670000005 399.78359989999996 333.4054869 402.1152954 325.21963480000005 C 403.77038569999996 319.40853860000004 405.1335449 313.94473250000004 406.2633667 308.79284650000005 C 407.256073 311.2016907 409.6424255 312.3452759 414.5715942 308.9790344 z" stroke-linecap="round" />
</g>
		<g transform="matrix(0.4747364040304255 0 0 0.4747364040304255 56.64946285629753 54.10790914973751)"  >
<path style="stroke: none; stroke-width: 1; stroke-dasharray: none; stroke-linecap: butt; stroke-dashoffset: 0; stroke-linejoin: miter; stroke-miterlimit: 4; fill: rgb(70,72,75); fill-rule: nonzero; opacity: 1;"  paint-order="stroke"  transform=" translate(-469.32823164999996, -464.1668549)" d="M 457.4675903 428.368103 L 438.39300529999997 444.1477966 L 454.34634389999997 457.67343139999997 L 425.00302109999996 527.3636475 C 463.25112899999993 509.41741949999994 494.58587629999994 478.17337039999995 513.6534422 439.23098759999993 C 501.19186379999996 432.17953499999993 467.2782896 413.2028808999999 441.83950789999994 400.97006229999994 L 457.4675903 428.368103 z" stroke-linecap="round" />
</g>
</g>
</g>
<g transform="matrix(1.9211538461538462 0 0 1.9211538461538462 882.134015270578 378.6128314968676)" id="text-logo"  >
<g style=""  paint-order="stroke"   >
		<g transform="matrix(1 0 0 1 0 0)" id="text-logo-path-0"  >
<filter id="SVGID_35108" y="-27.881314176464773%" height="155.76262835292954%" x="-20.508159693430525%" width="141.01631938686106%" >
	<feGaussianBlur in="SourceAlpha" stdDeviation="0"></feGaussianBlur>
	<feOffset dx="1.8484308848535385" dy="2.7726463272803072" result="oBlur" ></feOffset>
	<feFlood flood-color="rgb(188,188,188)" flood-opacity="1"/>
	<feComposite in2="oBlur" operator="in" />
	<feMerge>
		<feMergeNode></feMergeNode>
		<feMergeNode in="SourceGraphic"></feMergeNode>
	</feMerge>
</filter>
<path style="stroke: rgb(249,249,249); stroke-width: 2.7726463272803072; stroke-dasharray: none; stroke-linecap: butt; stroke-dashoffset: 0; stroke-linejoin: miter; stroke-miterlimit: 4; fill: rgb(70,72,75); fill-rule: nonzero; opacity: 1;filter: url(#SVGID_35108);"  paint-order="stroke"  transform=" translate(-184.415, 17.029999999999998)" d="M 10.67 0 L 10.67 -11.44 L 19.32 -11.44 C 25.42 -11.69 30.19 -16.57 30.19 -22.77 C 30.19 -28.92 25.42 -33.8 19.32 -34.06 L 2.54 -34.06 L 2.54 0 Z M 10.67 -18.55 L 10.67 -26.94 L 17.89 -26.94 C 20.38 -26.94 22.06 -25.21 22.06 -22.72 C 22.06 -20.23 20.38 -18.55 17.89 -18.55 Z M 56.02 0.56 C 62.52 0.56 68.27 -2.9 71.37 -8.29 C 72.94 -10.98 73.71 -13.88 73.71 -17.03 C 73.71 -23.33 70.35 -29.02 64.91 -32.23 C 62.22 -33.8 59.22 -34.62 56.02 -34.62 C 49.51 -34.62 43.77 -31.21 40.67 -25.82 C 39.09 -23.13 38.33 -20.18 38.33 -17.03 C 38.33 -10.73 41.68 -5.03 47.12 -1.83 C 49.82 -0.25 52.81 0.56 56.02 0.56 Z M 46.71 -17.03 C 46.71 -22.26 50.88 -26.43 56.02 -26.43 C 61.2 -26.43 65.32 -22.26 65.32 -17.03 C 65.32 -11.79 61.15 -7.62 56.02 -7.62 C 50.83 -7.62 46.71 -11.79 46.71 -17.03 Z M 112.39 -7.47 L 105.12 -11.69 C 103.49 -9.25 100.75 -7.62 97.5 -7.62 C 92.31 -7.62 88.19 -11.79 88.19 -17.03 C 88.19 -22.26 92.36 -26.43 97.5 -26.43 C 100.75 -26.43 103.75 -24.7 105.43 -22.01 L 112.59 -26.18 C 109.39 -31.31 103.8 -34.62 97.5 -34.62 C 90.99 -34.62 85.25 -31.21 82.14 -25.82 C 80.57 -23.13 79.81 -20.18 79.81 -17.03 C 79.81 -10.73 83.16 -5.03 88.6 -1.83 C 91.29 -0.25 94.29 0.56 97.5 0.56 C 103.65 0.56 109.14 -2.59 112.39 -7.47 Z M 128.86 0 L 128.86 -8.18 L 132.52 -12.35 L 141.87 0 L 152.44 0 L 138.21 -18.76 L 151.73 -34.06 L 140.55 -34.06 L 128.86 -20.89 L 128.86 -34.06 L 120.73 -34.06 L 120.73 0 Z M 160.58 0 L 184.98 0 L 184.98 -7.12 L 168.71 -7.12 L 168.71 -13.47 L 181.93 -13.47 L 181.93 -20.59 L 168.71 -20.59 L 168.71 -26.94 L 184.98 -26.94 L 184.98 -34.06 L 160.58 -34.06 Z M 210.39 0 L 210.39 -26.99 L 219.54 -26.99 L 219.54 -34.11 L 193.11 -34.11 L 193.11 -26.99 L 202.26 -26.99 L 202.26 0 Z M 227.68 0 L 244.55 0 C 252.38 0 256.8 -4.63 256.8 -11.34 C 256.8 -15.25 254.87 -17.94 251.62 -19.42 C 252.89 -20.74 253.6 -22.52 253.6 -24.76 C 253.6 -30.5 250.14 -34.06 243.43 -34.06 L 227.68 -34.06 Z M 235.81 -7.12 L 235.81 -14.69 L 246.08 -14.69 C 248.52 -14.69 250.14 -13.11 250.14 -10.83 C 250.14 -8.59 248.52 -7.12 245.72 -7.12 Z M 235.81 -20.79 L 235.81 -26.94 L 243.69 -26.94 C 246.08 -26.94 247.5 -25.92 247.5 -23.89 C 247.5 -21.81 246.08 -20.79 243.69 -20.79 Z M 273.88 0 L 276.42 -6.61 L 288.83 -6.61 L 291.37 0 L 300.31 0 L 287.1 -34.06 L 278.15 -34.06 L 264.94 0 Z M 279.22 -13.72 L 282.63 -22.52 L 286.03 -13.72 Z M 319.48 -34.57 C 311.6 -34.57 306.21 -30.45 306.21 -23.99 C 306.21 -18.86 309.21 -15.61 315.21 -14.28 L 322.22 -12.76 C 324.46 -12.3 325.58 -11.49 325.58 -10.32 C 325.58 -8.54 323.85 -7.62 320.39 -7.62 C 317.6 -7.62 314.75 -9.25 313.79 -11.84 L 305.4 -8.9 C 306.82 -2.8 312.62 0.51 319.94 0.51 C 324.66 0.51 329.14 -1.02 331.78 -4.32 C 333.1 -5.95 333.76 -7.98 333.76 -10.37 C 333.76 -15.5 330.71 -18.76 324.56 -20.13 L 317.6 -21.71 C 315.82 -22.11 314.6 -22.93 314.6 -23.99 C 314.6 -25.77 316.68 -26.43 319.38 -26.43 C 322.68 -26.43 324.82 -25.62 325.27 -22.82 L 333.1 -25.87 C 331.42 -31.57 326.19 -34.57 319.48 -34.57 Z M 341.9 0 L 366.29 0 L 366.29 -7.12 L 350.03 -7.12 L 350.03 -13.47 L 363.24 -13.47 L 363.24 -20.59 L 350.03 -20.59 L 350.03 -26.94 L 366.29 -26.94 L 366.29 -34.06 L 341.9 -34.06 Z" stroke-linecap="round" />
</g>
</g>
</g>
<g transform="matrix(1.9211538461538462 0 0 1.9211538461538462 866.5998101310225 476.15516028751455)" id="tagline-089cc6ba-c96b-48f5-9b5d-e2a26455cde5-logo"  >
<g style=""  paint-order="stroke"   >
		<g transform="matrix(1 0 0 1 0 0)" id="tagline-089cc6ba-c96b-48f5-9b5d-e2a26455cde5-logo-path-0"  >
<filter id="SVGID_35109" y="-27.85674788121368%" height="155.71349576242736%" x="-20.671790254353457%" width="141.3435805087069%" >
	<feGaussianBlur in="SourceAlpha" stdDeviation="0"></feGaussianBlur>
	<feOffset dx="1.8484308848535385" dy="2.7726463272803072" result="oBlur" ></feOffset>
	<feFlood flood-color="rgb(188,188,188)" flood-opacity="1"/>
	<feComposite in2="oBlur" operator="in" />
	<feMerge>
		<feMergeNode></feMergeNode>
		<feMergeNode in="SourceGraphic"></feMergeNode>
	</feMerge>
</filter>
<path style="stroke: rgb(249,249,249); stroke-width: 2.7726463272803072; stroke-dasharray: none; stroke-linecap: butt; stroke-dashoffset: 0; stroke-linejoin: miter; stroke-miterlimit: 4; fill: rgb(70,72,75); fill-rule: nonzero; opacity: 1;filter: url(#SVGID_35109);"  paint-order="stroke"  transform=" translate(-140.125, 17.084999999999997)" d="M 10.71 0 L 10.71 -16.22 L 17.39 0 L 26.32 0 L 33.05 -16.32 L 33.05 0 L 41.21 0 L 41.21 -34.17 L 31.52 -34.17 L 21.88 -10.71 L 12.19 -34.17 L 2.55 -34.17 L 2.55 0 Z M 58.34 0 L 60.89 -6.63 L 73.34 -6.63 L 75.89 0 L 84.86 0 L 71.6 -34.17 L 62.63 -34.17 L 49.37 0 Z M 63.7 -13.77 L 67.12 -22.59 L 70.53 -13.77 Z M 101.18 0 L 101.18 -21.11 L 113.63 0 L 123.62 0 L 123.62 -34.17 L 115.46 -34.17 L 115.46 -12.95 L 102.97 -34.17 L 93.02 -34.17 L 93.02 0 Z M 140.76 0 L 143.31 -6.63 L 155.75 -6.63 L 158.3 0 L 167.28 0 L 154.02 -34.17 L 145.04 -34.17 L 131.78 0 Z M 146.12 -13.77 L 149.53 -22.59 L 152.95 -13.77 Z M 191.56 -10.97 L 197.73 -10.97 C 196.04 -8.93 193.49 -7.65 190.64 -7.65 C 185.44 -7.65 181.31 -11.83 181.31 -17.09 C 181.31 -22.34 185.49 -26.52 190.64 -26.52 C 193.9 -26.52 196.91 -24.79 198.59 -22.08 L 205.78 -26.27 C 202.57 -31.42 196.96 -34.73 190.64 -34.73 C 184.11 -34.73 178.35 -31.31 175.24 -25.91 C 173.66 -23.21 172.89 -20.25 172.89 -17.09 C 172.89 -10.76 176.26 -5.05 181.71 -1.84 C 184.42 -0.26 187.43 0.56 190.64 0.56 C 194.16 0.56 197.47 -0.46 200.23 -2.19 L 200.23 0 L 208.39 0 L 208.39 -18.11 L 191.56 -18.11 Z M 216.55 0 L 241.03 0 L 241.03 -7.14 L 224.71 -7.14 L 224.71 -13.52 L 237.97 -13.52 L 237.97 -20.66 L 224.71 -20.66 L 224.71 -27.03 L 241.03 -27.03 L 241.03 -34.17 L 216.55 -34.17 Z M 277.7 0 L 269.99 -12.34 C 274.07 -14.03 276.93 -18.05 276.93 -22.85 C 276.93 -29.02 272.14 -33.91 266.02 -34.17 L 249.19 -34.17 L 249.19 0 L 257.35 0 L 257.35 -11.48 L 260.61 -11.48 L 267.8 0 Z M 257.35 -18.62 L 257.35 -27.03 L 264.59 -27.03 C 267.09 -27.03 268.77 -25.3 268.77 -22.8 C 268.77 -20.3 267.09 -18.62 264.59 -18.62 Z" stroke-linecap="round" />
</g>
</g>
</g>
</svg>